# This file uses centimeters as units for non-parametric coordinates.

mtllib Steak.mtl
g default
v -0.047740 -0.035297 0.247079
v 0.000000 -0.035297 0.279325
v 0.075990 -0.035297 0.247079
v -0.047740 0.035297 0.247079
v 0.000000 0.035297 0.279325
v 0.075990 0.035297 0.247079
v -0.087039 0.035297 0.123539
v 0.000000 0.035297 0.123539
v 0.105891 0.035297 0.123539
v -0.171156 0.035297 0.000000
v 0.000000 0.035297 0.000000
v 0.121924 0.035297 0.000000
v -0.216857 0.035297 -0.123539
v 0.000000 0.035297 -0.123539
v 0.105891 0.035297 -0.123539
v -0.171156 0.035297 -0.215319
v 0.000000 0.035297 -0.247079
v 0.066942 0.035297 -0.213000
v -0.171156 -0.035297 -0.215319
v 0.000000 -0.035297 -0.247079
v 0.066942 -0.035297 -0.213000
v -0.216857 -0.035297 -0.123539
v 0.000000 -0.035297 -0.123539
v 0.105891 -0.035297 -0.123539
v -0.171156 -0.035297 0.000000
v 0.000000 -0.035297 0.000000
v 0.121924 -0.035297 0.000000
v -0.087039 -0.035297 0.123539
v 0.000000 -0.035297 0.123539
v 0.105891 -0.035297 0.123539
vt 0.997245 0.913147
vt 0.840862 0.066081
vt 0.840862 0.197031
vt 0.722748 0.066081
vt 0.997246 0.997879
vt 0.840862 0.361837
vt 0.357143 0.176490
vt 0.288839 0.130383
vt 0.288904 0.353226
vt 0.413408 0.353190
vt 0.180152 0.176541
vt 0.137432 0.353270
vt 0.288955 0.529942
vt 0.533784 0.529871
vt 0.114549 0.529993
vt 0.880754 0.286561
vt 0.880754 0.002503
vt 0.722748 0.965469
vt 0.997244 0.002503
vt 0.997246 0.286562
vt 0.722748 0.848643
vt 0.533873 0.837873
vt 0.289057 0.883375
vt 0.289006 0.706658
vt 0.599209 0.706568
vt 0.193286 0.834654
vt 0.137535 0.706702
vt 0.288955 0.529942
vt 0.533784 0.529871
vt 0.114549 0.529993
vt 0.288904 0.353226
vt 0.413408 0.353190
vt 0.137433 0.353270
vt 0.840862 0.730420
vt 0.840862 0.848643
vt 0.840862 0.546128
vt 0.722748 0.730420
vt 0.997246 0.409730
vt 0.997246 0.567937
vt 0.997245 0.755048
vt 0.289006 0.706658
vt 0.599209 0.706568
vt 0.137535 0.706703
vt 0.289057 0.883375
vt 0.533873 0.837873
vt 0.193286 0.834655
vt 0.288839 0.130383
vt 0.357142 0.176490
vt 0.180153 0.176541
vt 0.722748 0.197031
vt 0.722748 0.361837
vt 0.722748 0.546128
vt 0.840861 0.965470
vt 0.880754 0.409730
vt 0.880753 0.567937
vt 0.880753 0.755048
vt 0.880753 0.913147
vt 0.880753 0.997879
vn -0.559727 0.000000 0.828677
vn 0.000000 0.000000 1.000000
vn 0.000000 0.000000 1.000000
vn -0.559727 0.000000 0.828677
vn 0.390630 0.000000 0.920548
vn 0.390630 0.000000 0.920548
vn 0.000000 1.000000 0.000000
vn 0.000000 1.000000 0.000000
vn 0.000000 1.000000 0.000000
vn 0.000000 1.000000 0.000000
vn 0.000000 1.000000 0.000000
vn 0.000000 1.000000 0.000000
vn 0.000000 1.000000 0.000000
vn 0.000000 1.000000 0.000000
vn 0.000000 1.000000 0.000000
vn 0.000000 1.000000 0.000000
vn 0.000000 1.000000 0.000000
vn 0.000000 1.000000 0.000000
vn 0.000000 1.000000 0.000000
vn 0.000000 1.000000 0.000000
vn 0.000000 1.000000 0.000000
vn -0.182447 0.000000 -0.983216
vn 0.009738 0.000000 -0.999953
vn 0.009738 0.000000 -0.999953
vn -0.182447 0.000000 -0.983216
vn 0.453670 0.000000 -0.891170
vn 0.453670 0.000000 -0.891170
vn 0.000000 -1.000000 0.000000
vn 0.000000 -1.000000 0.000000
vn 0.000000 -1.000000 0.000000
vn 0.000000 -1.000000 0.000000
vn 0.000000 -1.000000 0.000000
vn 0.000000 -1.000000 0.000000
vn 0.000000 -1.000000 0.000000
vn 0.000000 -1.000000 0.000000
vn 0.000000 -1.000000 0.000000
vn 0.000000 -1.000000 0.000000
vn 0.000000 -1.000000 0.000000
vn 0.000000 -1.000000 0.000000
vn 0.000000 -1.000000 0.000000
vn 0.000000 -1.000000 0.000000
vn 0.000000 -1.000000 0.000000
vn 0.968262 0.000000 -0.249937
vn 0.916873 0.000000 -0.399179
vn 0.916873 0.000000 -0.399179
vn 0.968262 0.000000 -0.249937
vn 1.000000 0.000000 0.000000
vn 1.000000 0.000000 0.000000
vn 0.983155 0.000000 0.182775
vn 0.983155 0.000000 0.182775
vn 0.971937 0.000000 0.235241
vn 0.971937 0.000000 0.235241
vn -0.895160 0.000000 -0.445745
vn -1.000000 0.000000 -0.000000
vn -1.000000 0.000000 -0.000000
vn -0.895160 0.000000 -0.445745
vn -0.885247 0.000000 0.465121
vn -0.885247 0.000000 0.465121
vn -0.894607 0.000000 0.446855
vn -0.894607 0.000000 0.446855
vn -0.952947 0.000000 0.303136
vn -0.952947 0.000000 0.303136
s 1
g pCube42
usemtl lambert2SG
f 1/1/1 2/5/2 5/58/3 4/57/4
f 2/2/2 3/3/5 6/50/6 5/4/3
s 2
f 4/7/7 5/8/8 8/9/9 7/10/10
f 5/8/8 6/11/11 9/12/12 8/9/9
f 7/10/10 8/9/9 11/13/13 10/14/14
f 8/9/9 9/12/12 12/15/15 11/13/13
f 10/14/14 11/13/13 14/41/16 13/42/17
f 11/13/13 12/15/15 15/43/18 14/41/16
f 13/42/17 14/41/16 17/44/19 16/45/20
f 14/41/16 15/43/18 18/46/21 17/44/19
s 3
f 16/16/22 17/17/23 20/19/24 19/20/25
f 17/18/23 18/21/26 21/35/27 20/53/24
s 4
f 19/22/28 20/23/29 23/24/30 22/25/31
f 20/23/29 21/26/32 24/27/33 23/24/30
f 22/25/31 23/24/30 26/28/34 25/29/35
f 23/24/30 24/27/33 27/30/36 26/28/34
f 25/29/35 26/28/34 29/31/37 28/32/38
f 26/28/34 27/30/36 30/33/39 29/31/37
f 28/32/38 29/31/37 2/47/40 1/48/41
f 29/31/37 30/33/39 3/49/42 2/47/40
s 5
f 24/34/43 21/35/44 18/21/45 15/37/46
f 27/36/47 24/34/43 15/37/46 12/52/48
f 30/6/49 27/36/47 12/52/48 9/51/50
f 3/3/51 30/6/49 9/51/50 6/50/52
s 6
f 19/20/53 22/38/54 13/54/55 16/16/56
f 22/38/54 25/39/57 10/55/58 13/54/55
f 25/39/57 28/40/59 7/56/60 10/55/58
f 28/40/59 1/1/61 4/57/62 7/56/60
