# This file uses centimeters as units for non-parametric coordinates.

mtllib Bread_Steak.mtl
g default
v -0.129788 -0.019775 -0.259576
v -0.064894 -0.109695 -0.259576
v 0.064894 -0.109695 -0.259576
v 0.129788 -0.019775 -0.259576
v -0.129788 -0.019775 0.259575
v -0.064894 -0.109695 0.259575
v 0.064894 -0.109695 0.259575
v 0.129788 -0.019775 0.259575
v -0.103830 -0.019775 0.318842
v 0.103830 -0.019775 0.318842
v -0.051915 -0.091711 0.318842
v 0.051915 -0.091711 0.318842
v -0.103830 -0.019775 -0.330096
v 0.103830 -0.019775 -0.330096
v -0.051915 -0.091711 -0.330096
v 0.051915 -0.091711 -0.330096
v -0.140991 -0.019408 0.202313
v -0.111831 -0.019408 0.251998
v -0.029365 -0.019408 0.255688
v -0.140991 0.051186 0.202313
v -0.111831 0.051186 0.251998
v -0.029365 0.051186 0.255688
v -0.123152 0.051186 0.073907
v -0.044628 0.051186 0.111453
v 0.050903 0.051186 0.157133
v -0.145748 0.051186 -0.073833
v 0.008664 0.051186 0.000000
v 0.118660 0.051186 0.052596
v -0.133686 0.051186 -0.205002
v 0.061957 0.051186 -0.111453
v 0.157488 0.051186 -0.065774
v -0.052863 0.051186 -0.268087
v 0.115249 0.051186 -0.222907
v 0.160942 0.051186 -0.163285
v -0.052863 -0.019408 -0.268087
v 0.115249 -0.019408 -0.222907
v 0.160942 -0.019408 -0.163285
v -0.133686 -0.019408 -0.205002
v 0.061957 -0.019408 -0.111453
v 0.157488 -0.019408 -0.065774
v -0.145748 -0.019408 -0.073833
v 0.008664 -0.019408 0.000000
v 0.118660 -0.019408 0.052596
v -0.123152 -0.019408 0.073907
v -0.044628 -0.019408 0.111453
v 0.050903 -0.019408 0.157133
v 0.064894 0.141723 -0.259576
v -0.064894 0.141723 -0.259576
v -0.129788 0.051802 -0.259576
v 0.129788 0.051802 -0.259576
v 0.064894 0.141723 0.259575
v -0.064894 0.141723 0.259575
v -0.129788 0.051802 0.259575
v 0.129788 0.051802 0.259575
v -0.051915 0.123739 0.318842
v -0.103830 0.051803 0.318842
v 0.103830 0.051803 0.318842
v 0.051915 0.123739 0.318842
v -0.051915 0.123739 -0.330096
v -0.103830 0.051802 -0.330096
v 0.051915 0.123739 -0.330096
v 0.103830 0.051802 -0.330096
vt 0.094027 0.464116
vt 0.187772 0.464116
vt 0.266389 0.464116
vt 0.453880 0.839097
vt 0.015409 0.839097
vt 0.094027 0.839097
vt 0.187772 0.839097
vt 0.065904 0.922513
vt 0.103401 0.870554
vt 0.178398 0.870553
vt 0.215896 0.922512
vt 0.103402 0.426042
vt 0.065904 0.374083
vt 0.215896 0.374083
vt 0.178398 0.426042
vt 0.435131 0.413179
vt 0.453880 0.464116
vt 0.285138 0.413179
vt 0.266389 0.839097
vt 0.435131 0.881905
vt 0.285138 0.881905
vt 0.015409 0.464116
vt 0.029808 0.422221
vt 0.189097 0.422221
vt 0.251991 0.422221
vt 0.252763 0.874044
vt 0.189868 0.874044
vt 0.091930 0.874044
vt 0.092702 0.422221
vt 0.029036 0.874044
vt 0.997245 0.913147
vt 0.997246 0.997879
vt 0.880753 0.997879
vt 0.880753 0.913147
vt 0.840862 0.066081
vt 0.840862 0.197031
vt 0.722748 0.197031
vt 0.722748 0.066081
vt 0.357143 0.176490
vt 0.288839 0.130383
vt 0.288904 0.353226
vt 0.413408 0.353190
vt 0.180152 0.176541
vt 0.137432 0.353270
vt 0.288955 0.529942
vt 0.533784 0.529871
vt 0.114549 0.529993
vt 0.289006 0.706658
vt 0.599209 0.706568
vt 0.137535 0.706703
vt 0.289057 0.883375
vt 0.533873 0.837873
vt 0.193286 0.834655
vt 0.880754 0.286561
vt 0.880754 0.002503
vt 0.997244 0.002503
vt 0.997246 0.286562
vt 0.722748 0.965469
vt 0.722748 0.848643
vt 0.840862 0.848643
vt 0.840861 0.965470
vt 0.533873 0.837873
vt 0.289057 0.883375
vt 0.289006 0.706658
vt 0.599209 0.706568
vt 0.193286 0.834654
vt 0.137535 0.706702
vt 0.288955 0.529942
vt 0.533784 0.529871
vt 0.114549 0.529993
vt 0.288904 0.353226
vt 0.413408 0.353190
vt 0.137433 0.353270
vt 0.288839 0.130383
vt 0.357142 0.176490
vt 0.180153 0.176541
vt 0.840862 0.730420
vt 0.722748 0.730420
vt 0.840862 0.546128
vt 0.722748 0.546128
vt 0.840862 0.361837
vt 0.722748 0.361837
vt 0.997246 0.409730
vt 0.880754 0.409730
vt 0.997246 0.567937
vt 0.880753 0.567937
vt 0.997245 0.755048
vt 0.880753 0.755048
vt 0.761706 0.464253
vt 0.855562 0.464253
vt 0.855563 0.839679
vt 0.761706 0.839679
vt 0.934273 0.464253
vt 0.934273 0.839679
vt 0.682995 0.464253
vt 0.682995 0.839680
vt 0.883720 0.374112
vt 0.846177 0.426133
vt 0.771091 0.426133
vt 0.733549 0.374112
vt 0.846177 0.871172
vt 0.883721 0.923192
vt 0.733550 0.923195
vt 0.771092 0.871173
vt 0.920631 0.874668
vt 0.857662 0.874668
vt 0.759607 0.874667
vt 0.696638 0.874669
vt 0.856890 0.422308
vt 0.919858 0.422308
vt 0.697410 0.422308
vt 0.760379 0.422307
vt 0.495282 0.464253
vt 0.514053 0.413255
vt 0.664224 0.413255
vt 0.495282 0.839679
vt 0.514053 0.882538
vt 0.664224 0.882538
vn -0.810884 -0.585206 0.000000
vn -0.810884 -0.585206 0.000000
vn -0.810884 -0.585206 0.000000
vn -0.810884 -0.585206 0.000000
vn 0.000000 -1.000000 0.000000
vn 0.000000 -1.000000 0.000000
vn 0.000000 -1.000000 0.000000
vn 0.000000 -1.000000 0.000000
vn 0.810884 -0.585207 0.000000
vn 0.810884 -0.585207 0.000000
vn 0.810884 -0.585207 0.000000
vn 0.810884 -0.585207 0.000000
vn 0.000000 0.000000 -1.000000
vn 0.000000 0.000000 -1.000000
vn 0.000000 0.000000 -1.000000
vn 0.000000 0.000000 -1.000000
vn 0.000000 0.000000 1.000000
vn 0.000000 0.000000 1.000000
vn 0.000000 0.000000 1.000000
vn 0.000000 0.000000 1.000000
vn -0.764125 -0.551460 0.334672
vn -0.764125 -0.551460 0.334672
vn -0.764125 -0.551460 0.334672
vn -0.764125 -0.551460 0.334672
vn 0.000000 -0.956915 0.290367
vn 0.000000 -0.956915 0.290367
vn 0.000000 -0.956915 0.290367
vn 0.000000 -0.956915 0.290367
vn 0.764125 -0.551460 0.334672
vn 0.764125 -0.551460 0.334672
vn 0.764125 -0.551460 0.334672
vn 0.764125 -0.551460 0.334672
vn -0.777011 -0.560760 -0.286011
vn -0.777011 -0.560760 -0.286011
vn -0.777011 -0.560760 -0.286011
vn -0.777011 -0.560760 -0.286011
vn 0.777011 -0.560760 -0.286011
vn 0.777011 -0.560760 -0.286011
vn 0.777011 -0.560760 -0.286011
vn 0.777011 -0.560760 -0.286011
vn 0.000000 -0.968987 -0.247111
vn 0.000000 -0.968987 -0.247111
vn 0.000000 -0.968987 -0.247111
vn 0.000000 -0.968987 -0.247111
vn 0.000000 1.000000 0.000001
vn 0.000000 1.000000 0.000001
vn 0.000000 1.000000 0.000001
vn 0.000000 1.000000 0.000001
vn 0.000000 1.000000 0.000000
vn 0.000000 1.000000 0.000000
vn 0.000000 1.000000 0.000000
vn 0.000000 1.000000 0.000000
vn 0.000000 1.000000 0.000000
vn 0.000000 1.000000 0.000000
vn 0.000000 1.000000 0.000000
vn 0.000000 1.000000 0.000000
vn -0.862444 0.000000 0.506152
vn -0.431381 0.000000 0.902170
vn -0.431381 0.000000 0.902170
vn -0.862444 0.000000 0.506152
vn -0.044692 0.000000 0.999001
vn -0.044692 0.000000 0.999001
vn 0.000000 1.000000 -0.000000
vn 0.000000 1.000000 0.000001
vn 0.000000 1.000000 0.000000
vn 0.000000 1.000000 0.000000
vn 0.000000 1.000000 0.000001
vn 0.000000 1.000000 0.000000
vn 0.000000 1.000000 -0.000000
vn 0.000000 1.000000 0.000000
vn 0.000000 1.000000 -0.000000
vn 0.000000 1.000000 -0.000000
vn 0.000000 1.000000 -0.000000
vn 0.000000 1.000000 0.000000
vn 0.000000 1.000000 -0.000000
vn 0.000000 1.000000 -0.000001
vn 0.000000 1.000000 0.000000
vn 0.259542 0.000000 -0.965732
vn 0.440145 0.000000 -0.897927
vn 0.440145 0.000000 -0.897927
vn 0.259542 0.000000 -0.965732
vn 0.793721 0.000000 -0.608281
vn 0.793721 0.000000 -0.608281
vn 0.000000 -1.000000 0.000001
vn 0.000000 -1.000000 0.000000
vn 0.000000 -1.000000 -0.000000
vn 0.000000 -1.000000 -0.000000
vn 0.000000 -1.000000 -0.000001
vn 0.000000 -1.000000 -0.000000
vn 0.000000 -1.000000 -0.000000
vn 0.000000 -1.000000 -0.000000
vn 0.000000 -1.000000 -0.000000
vn 0.000000 -1.000000 -0.000000
vn 0.000000 -1.000000 0.000000
vn 0.000000 -1.000000 -0.000001
vn 0.000000 -1.000000 0.000000
vn 0.000000 -1.000000 0.000001
vn 0.000000 -1.000000 -0.000001
vn 0.981355 0.000000 0.192205
vn 0.999373 0.000000 0.035395
vn 0.999373 0.000000 0.035395
vn 0.981355 0.000000 0.192205
vn 0.902170 0.000000 0.431381
vn 0.902170 0.000000 0.431381
vn 0.808127 0.000000 0.589009
vn 0.808127 0.000000 0.589009
vn 0.775374 0.000000 0.631502
vn 0.775374 0.000000 0.631502
vn -0.615301 0.000000 -0.788292
vn -0.902170 0.000000 -0.431381
vn -0.902170 0.000000 -0.431381
vn -0.615301 0.000000 -0.788292
vn -0.999288 0.000000 0.037740
vn -0.999288 0.000000 0.037740
vn -0.999852 0.000000 0.017223
vn -0.999852 0.000000 0.017223
vn -0.990487 0.000000 -0.137603
vn -0.990487 0.000000 -0.137603
vn 0.000000 1.000000 0.000000
vn 0.000000 1.000000 0.000000
vn 0.000000 1.000000 0.000000
vn 0.000000 1.000000 0.000000
vn -0.810886 0.585205 0.000000
vn -0.810886 0.585205 0.000000
vn -0.810886 0.585205 0.000000
vn -0.810886 0.585205 0.000000
vn 0.810886 0.585204 0.000000
vn 0.810886 0.585204 0.000000
vn 0.810886 0.585204 0.000000
vn 0.810886 0.585204 0.000000
vn 0.000000 0.000000 -1.000000
vn 0.000000 0.000000 -1.000000
vn 0.000000 0.000000 -1.000000
vn 0.000000 0.000000 -1.000000
vn 0.000000 0.000000 1.000000
vn 0.000000 0.000000 1.000000
vn 0.000000 0.000000 1.000000
vn 0.000000 0.000000 1.000000
vn -0.764125 0.551459 0.334673
vn -0.764125 0.551459 0.334673
vn -0.764125 0.551459 0.334673
vn -0.764125 0.551459 0.334673
vn 0.764125 0.551459 0.334673
vn 0.764125 0.551459 0.334673
vn 0.764125 0.551459 0.334673
vn 0.764125 0.551459 0.334673
vn 0.000000 0.956915 0.290367
vn 0.000000 0.956915 0.290367
vn 0.000000 0.956915 0.290367
vn 0.000000 0.956915 0.290367
vn -0.777012 0.560758 -0.286012
vn -0.777012 0.560758 -0.286012
vn -0.777012 0.560758 -0.286012
vn -0.777012 0.560758 -0.286012
vn 0.000000 0.968987 -0.247112
vn 0.000000 0.968987 -0.247112
vn 0.000000 0.968987 -0.247112
vn 0.000000 0.968987 -0.247112
vn 0.777012 0.560758 -0.286012
vn 0.777012 0.560758 -0.286012
vn 0.777012 0.560758 -0.286012
vn 0.777012 0.560758 -0.286012
vn 0.000000 -1.000000 0.000000
vn 0.000000 -1.000000 0.000000
vn 0.000000 -1.000000 0.000000
vn 0.000000 -1.000000 0.000000
vn 0.000000 -1.000000 0.000000
vn 0.000000 -1.000000 0.000000
vn 0.000000 -1.000000 0.000000
vn 0.000000 -1.000000 0.000000
vn 0.000000 -1.000000 0.000004
vn 0.000000 -1.000000 0.000004
vn 0.000000 -1.000000 0.000004
vn 0.000000 -1.000000 0.000004
s off
g pCylinder29
usemtl lambert16SG
f 1/22/1 2/1/2 6/6/3 5/5/4
f 2/1/5 3/2/6 7/7/7 6/6/8
f 3/2/9 4/3/10 8/19/11 7/7/12
f 15/12/13 13/13/14 14/14/15 16/15/16
f 9/8/17 11/9/18 12/10/19 10/11/20
f 5/5/21 6/6/22 11/28/23 9/30/24
f 6/6/25 7/7/26 12/10/27 11/9/28
f 7/7/29 8/19/30 10/26/31 12/27/32
f 2/1/33 1/22/34 13/23/35 15/29/36
f 4/3/37 3/2/38 16/24/39 14/25/40
f 3/2/41 2/1/42 15/12/43 16/15/44
f 13/16/45 1/17/46 4/3/47 14/18/48
f 1/17/49 5/4/50 8/19/51 4/3/52
f 5/4/53 9/20/54 10/21/55 8/19/56
s 1
usemtl lambert17SG
f 17/31/57 18/32/58 21/33/59 20/34/60
f 18/35/58 19/36/61 22/37/62 21/38/59
s 2
f 20/39/63 21/40/64 24/41/65 23/42/66
f 21/40/64 22/43/67 25/44/68 24/41/65
f 23/42/66 24/41/65 27/45/69 26/46/70
f 24/41/65 25/44/68 28/47/71 27/45/69
f 26/46/70 27/45/69 30/48/72 29/49/73
f 27/45/69 28/47/71 31/50/74 30/48/72
f 29/49/73 30/48/72 33/51/75 32/52/76
f 30/48/72 31/50/74 34/53/77 33/51/75
s 3
f 32/54/78 33/55/79 36/56/80 35/57/81
f 33/58/79 34/59/82 37/60/83 36/61/80
s 4
f 35/62/84 36/63/85 39/64/86 38/65/87
f 36/63/85 37/66/88 40/67/89 39/64/86
f 38/65/87 39/64/86 42/68/90 41/69/91
f 39/64/86 40/67/89 43/70/92 42/68/90
f 41/69/91 42/68/90 45/71/93 44/72/94
f 42/68/90 43/70/92 46/73/95 45/71/93
f 44/72/94 45/71/93 18/74/96 17/75/97
f 45/71/93 46/73/95 19/76/98 18/74/96
s 5
f 40/77/99 37/60/100 34/59/101 31/78/102
f 43/79/103 40/77/99 31/78/102 28/80/104
f 46/81/105 43/79/103 28/80/104 25/82/106
f 19/36/107 46/81/105 25/82/106 22/37/108
s 6
f 35/57/109 38/83/110 29/84/111 32/54/112
f 38/83/110 41/85/113 26/86/114 29/84/111
f 41/85/113 44/87/115 23/88/116 26/86/114
f 44/87/115 17/31/117 20/34/118 23/88/116
s off
usemtl lambert16SG
f 47/89/119 48/90/120 52/91/121 51/92/122
f 48/90/123 49/93/124 53/94/125 52/91/126
f 50/95/127 47/89/128 51/92/129 54/96/130
f 60/97/131 59/98/132 61/99/133 62/100/134
f 55/101/135 56/102/136 57/103/137 58/104/138
f 52/91/139 53/94/140 56/105/141 55/106/142
f 54/96/143 51/92/144 58/107/145 57/108/146
f 51/92/147 52/91/148 55/101/149 58/104/150
f 49/93/151 48/90/152 59/109/153 60/110/154
f 48/90/155 47/89/156 61/99/157 59/98/158
f 47/89/159 50/95/160 62/111/161 61/112/162
f 49/113/163 60/114/164 62/115/165 50/95/166
f 53/116/167 49/113/168 50/95/169 54/96/170
f 56/117/171 53/116/172 54/96/173 57/118/174
