# This file uses centimeters as units for non-parametric coordinates.

mtllib Tosti.mtl
g default
v 0.004436 0.010806 0.220990
v 0.301637 0.010806 0.194349
v 0.004436 0.104824 0.220990
v 0.301637 0.104824 0.194349
v 0.269556 0.104824 -0.163524
v 0.269556 0.010806 -0.163524
v -0.085546 0.010806 0.249484
v -0.085546 0.104824 0.249484
v -0.063390 0.010806 0.288861
v -0.063390 0.104824 0.288861
v -0.129111 0.104824 0.294752
v -0.129111 0.010806 0.294752
v -0.007065 0.104824 0.092692
v -0.092507 0.104824 0.171831
v -0.118716 0.104824 0.196107
v -0.169746 0.104824 0.243372
v -0.007065 0.010806 0.092692
v -0.092507 0.010806 0.171831
v -0.118716 0.010806 0.196107
v -0.169746 0.010806 0.243372
v -0.076152 0.093457 -0.119775
v 0.128306 0.087931 -0.337039
v -0.043492 0.011630 -0.086958
v 0.160967 0.006104 -0.304222
v -0.119669 0.003325 -0.031852
v -0.152329 0.085152 -0.064668
v -0.071129 0.085826 0.125551
v -0.025714 0.120737 0.167402
v -0.058374 0.202564 0.134585
v -0.103790 0.167652 0.092734
v -0.021732 0.250538 0.217739
v 0.010928 0.168711 0.250556
v -0.165991 0.064535 -0.102479
v -0.133330 -0.017292 -0.069663
v -0.178543 -0.016070 -0.021618
v -0.211204 0.065757 -0.054435
v -0.157554 0.039197 0.095298
v -0.190214 0.121024 0.062482
v 0.071404 0.206885 0.016199
v 0.053828 0.243627 0.125307
v 0.048437 0.254898 0.158776
v 0.037940 0.276842 0.223940
v 0.104064 0.125058 0.049016
v 0.086489 0.161801 0.158124
v 0.081098 0.173071 0.191593
v 0.070600 0.195015 0.256756
v -0.336933 -0.020557 0.347048
v 0.388576 -0.020557 0.347048
v -0.336933 0.015330 0.347048
v 0.388576 0.015330 0.347048
v -0.336933 0.015330 -0.378461
v 0.388576 0.015330 -0.378461
v -0.336933 -0.020557 -0.378461
v 0.388576 -0.020557 -0.378461
v -0.295623 0.015330 0.305737
v 0.347265 0.015330 0.305737
v 0.347265 0.015330 -0.337151
v -0.295623 0.015330 -0.337151
v -0.095267 -0.015671 0.105382
v 0.146909 -0.015671 0.105382
v 0.146909 -0.015671 -0.136795
v -0.095267 -0.015671 -0.136795
v -0.061815 -0.061971 -0.103343
v 0.113457 -0.061971 -0.103343
v 0.113457 -0.061971 0.071929
v -0.061815 -0.061971 0.071929
vt 0.262988 0.125360
vt 0.580990 0.125360
vt 0.262988 0.225556
vt 0.951617 0.374613
vt 0.146831 0.408588
vt 0.267377 0.435899
vt 0.171424 0.354773
vt 0.160730 0.125360
vt 0.160730 0.225556
vt 0.090409 0.125360
vt 0.090409 0.225556
vt 0.267377 0.435899
vt 0.658123 0.438060
vt 0.887183 0.374613
vt 0.655521 0.908576
vt 0.266445 0.604580
vt 0.146267 0.510683
vt 0.085017 0.354295
vt 0.266445 0.604580
vt 0.396919 0.287519
vt 0.887183 0.287519
vt 0.951617 0.287519
vt 0.854090 0.374613
vt 0.854090 0.287519
vt 0.746203 0.374613
vt 0.746203 0.287519
vt 0.396919 0.374613
vt 0.146831 0.408588
vt 0.109403 0.481880
vt 0.085016 0.354295
vt 0.171424 0.354773
vt 0.037627 0.425801
vt 0.655521 0.908576
vt 0.658123 0.438060
vt 0.146267 0.510683
vt 0.109403 0.481880
vt 0.037627 0.425801
vt 0.963911 0.125360
vt 0.580990 0.225556
vt 0.020597 0.225556
vt 0.020597 0.125360
vt 0.963911 0.225556
vt 0.321084 0.218472
vt 0.028981 0.218472
vt 0.028981 0.126437
vt 0.321084 0.126437
vt 0.281617 0.907553
vt 0.672705 0.909716
vt 0.283288 0.605454
vt 0.708448 0.126436
vt 0.777896 0.126437
vt 0.777896 0.218472
vt 0.708448 0.218472
vt 0.163004 0.511475
vt 0.160670 0.933550
vt 0.415013 0.218472
vt 0.415013 0.126437
vt 0.479607 0.126437
vt 0.479607 0.218472
vt 0.126108 0.482646
vt 0.053755 0.624328
vt 0.053240 0.717310
vt 0.607859 0.126437
vt 0.607859 0.218472
vt 0.878485 0.126437
vt 0.878485 0.218473
vt 0.054270 0.426517
vt 0.006839 0.498085
vt 0.098204 0.987202
vt 0.184686 0.987680
vt 0.160670 0.933551
vt 0.281617 0.907553
vt 0.184686 0.987680
vt 0.098203 0.987202
vt 0.004931 0.843025
vt 0.053241 0.717310
vt 0.004931 0.843025
vt 0.283288 0.605454
vt 0.672705 0.909716
vt 0.163004 0.511475
vt 0.126108 0.482646
vt 0.053755 0.624328
vt 0.054270 0.426517
vt 0.006839 0.498085
vt 0.942611 0.126437
vt 0.942611 0.218473
vt 0.459667 0.370681
vt 0.391707 0.370681
vt 0.391707 0.278821
vt 0.459667 0.278821
vt 0.494572 0.370681
vt 0.494572 0.278821
vt 0.608362 0.370681
vt 0.608362 0.278821
vt 0.976759 0.370681
vt 0.976759 0.278821
vt 0.375000 0.000000
vt 0.625000 0.000000
vt 0.625000 0.250000
vt 0.375000 0.250000
vt 0.375000 0.250000
vt 0.625000 0.250000
vt 0.625000 0.500000
vt 0.375000 0.500000
vt 0.375000 0.500000
vt 0.625000 0.500000
vt 0.625000 0.750000
vt 0.375000 0.750000
vt 0.375000 0.750000
vt 0.625000 0.750000
vt 0.625000 1.000000
vt 0.375000 1.000000
vt 0.875000 0.000000
vt 0.875000 0.250000
vt 0.125000 0.000000
vt 0.125000 0.250000
vt 0.625000 0.250000
vt 0.375000 0.250000
vt 0.625000 0.500000
vt 0.375000 0.500000
vt 0.625000 1.000000
vt 0.375000 1.000000
vn 0.089284 0.000000 0.996006
vn 0.089284 0.000000 0.996006
vn 0.089284 0.000000 0.996006
vn 0.089284 0.000000 0.996006
vn 0.000000 1.000000 0.000000
vn 0.000000 1.000000 0.000000
vn 0.000000 1.000000 0.000000
vn 0.000000 1.000000 0.000000
vn 0.996006 0.000000 -0.089285
vn 0.996006 0.000000 -0.089285
vn 0.996006 0.000000 -0.089285
vn 0.996006 0.000000 -0.089285
vn 0.089283 0.000000 0.996006
vn 0.089283 0.000000 0.996006
vn 0.089283 0.000000 0.996006
vn 0.089283 0.000000 0.996006
vn 0.000000 1.000000 0.000000
vn 0.000000 1.000000 0.000000
vn 0.000000 1.000000 0.000000
vn 0.000000 1.000000 0.000000
vn -0.784352 0.000000 0.620316
vn -0.784352 0.000000 0.620316
vn -0.784352 0.000000 0.620316
vn -0.784352 0.000000 0.620316
vn 0.000000 1.000000 0.000000
vn 0.000000 1.000000 0.000000
vn 0.000000 1.000000 0.000000
vn 0.707339 0.000000 0.706874
vn 0.707339 0.000000 0.706874
vn 0.707339 0.000000 0.706874
vn 0.707339 0.000000 0.706874
vn 0.000000 1.000000 0.000000
vn 0.000000 1.000000 0.000000
vn 0.000000 1.000000 0.000000
vn 0.000000 1.000000 0.000000
vn 0.000000 -1.000000 0.000000
vn 0.000000 -1.000000 0.000000
vn 0.000000 -1.000000 0.000000
vn 0.000000 -1.000000 0.000000
vn 0.000000 1.000000 0.000000
vn 0.000000 1.000000 0.000000
vn 0.000000 1.000000 0.000000
vn 0.000000 1.000000 0.000000
vn 0.000000 -1.000000 0.000000
vn 0.000000 -1.000000 0.000000
vn 0.000000 -1.000000 0.000000
vn 0.000000 -1.000000 0.000000
vn 0.000000 -1.000000 -0.000000
vn 0.000000 -1.000000 -0.000000
vn 0.000000 -1.000000 -0.000000
vn 0.000000 -1.000000 -0.000000
vn 0.000000 -1.000000 0.000000
vn 0.000000 -1.000000 0.000000
vn 0.000000 -1.000000 0.000000
vn 0.000000 -1.000000 0.000000
vn 0.000000 -1.000000 0.000000
vn 0.000000 -1.000000 0.000000
vn 0.000000 -1.000000 0.000000
vn -0.679527 0.000000 -0.733651
vn -0.679527 0.000000 -0.733651
vn -0.679527 0.000000 -0.733651
vn -0.679527 0.000000 -0.733651
vn -0.679535 0.000000 -0.733643
vn -0.679535 0.000000 -0.733643
vn -0.679535 0.000000 -0.733643
vn -0.679535 0.000000 -0.733643
vn -0.679527 0.000000 -0.733651
vn -0.679527 0.000000 -0.733651
vn -0.679527 0.000000 -0.733651
vn -0.679527 0.000000 -0.733651
vn -0.679530 0.000000 -0.733648
vn -0.679530 0.000000 -0.733648
vn -0.679530 0.000000 -0.733648
vn -0.679530 0.000000 -0.733648
vn -0.640173 -0.492108 -0.589923
vn -0.640173 -0.492108 -0.589923
vn -0.640173 -0.492108 -0.589923
vn -0.640173 -0.492108 -0.589923
vn 0.347386 -0.870338 0.349048
vn 0.347386 -0.870338 0.349048
vn 0.347386 -0.870338 0.349048
vn -0.685204 0.018515 0.728116
vn -0.685204 0.018515 0.728116
vn -0.685204 0.018515 0.728116
vn -0.685204 0.018515 0.728116
vn 0.347387 -0.870338 0.349047
vn 0.347387 -0.870338 0.349048
vn 0.347387 -0.870338 0.349048
vn 0.347387 -0.870338 0.349048
vn -0.640171 -0.492107 -0.589925
vn -0.640171 -0.492107 -0.589925
vn -0.640171 -0.492107 -0.589925
vn -0.640171 -0.492107 -0.589925
vn 0.347386 -0.870338 0.349048
vn 0.347386 -0.870338 0.349048
vn 0.347386 -0.870338 0.349048
vn 0.347386 -0.870338 0.349048
vn 0.347386 -0.870338 0.349048
vn -0.923934 -0.254090 0.285978
vn -0.923934 -0.254090 0.285978
vn -0.923934 -0.254090 0.285978
vn -0.923934 -0.254090 0.285978
vn -0.867272 -0.156652 0.472545
vn -0.867272 -0.156652 0.472545
vn -0.867272 -0.156652 0.472545
vn -0.867272 -0.156652 0.472545
vn 0.347387 -0.870338 0.349048
vn 0.347387 -0.870338 0.349048
vn 0.347387 -0.870338 0.349048
vn 0.347387 -0.870338 0.349048
vn -0.051667 -0.389430 -0.919606
vn -0.051667 -0.389430 -0.919606
vn -0.051667 -0.389430 -0.919606
vn -0.051667 -0.389430 -0.919606
vn 0.347388 -0.870337 0.349048
vn 0.347388 -0.870337 0.349048
vn 0.347388 -0.870337 0.349048
vn 0.347388 -0.870337 0.349048
vn -0.347387 0.870337 -0.349050
vn -0.347387 0.870337 -0.349050
vn -0.347387 0.870337 -0.349050
vn -0.347387 0.870337 -0.349050
vn 0.347388 -0.870338 0.349048
vn 0.347388 -0.870338 0.349048
vn 0.347388 -0.870338 0.349048
vn 0.347388 -0.870338 0.349048
vn -0.414630 0.191298 0.889655
vn -0.414630 0.191298 0.889656
vn -0.414630 0.191298 0.889655
vn -0.414630 0.191298 0.889656
vn -0.347388 0.870338 -0.349047
vn -0.347388 0.870338 -0.349047
vn -0.347388 0.870338 -0.349047
vn -0.347388 0.870338 -0.349047
vn -0.347387 0.870338 -0.349048
vn -0.347387 0.870338 -0.349048
vn -0.347387 0.870338 -0.349048
vn -0.347385 0.870338 -0.349050
vn -0.347385 0.870338 -0.349050
vn -0.347385 0.870338 -0.349050
vn -0.347385 0.870338 -0.349050
vn -0.347387 0.870338 -0.349047
vn -0.347387 0.870338 -0.349047
vn -0.347387 0.870338 -0.349047
vn -0.347387 0.870338 -0.349047
vn -0.347387 0.870338 -0.349047
vn -0.347387 0.870338 -0.349048
vn -0.347387 0.870338 -0.349048
vn -0.347387 0.870338 -0.349048
vn -0.347387 0.870338 -0.349048
vn -0.222545 0.285076 0.932312
vn -0.222545 0.285076 0.932312
vn -0.222545 0.285076 0.932312
vn -0.222545 0.285076 0.932312
vn 0.925498 0.378127 0.021755
vn 0.925498 0.378127 0.021755
vn 0.925498 0.378127 0.021755
vn 0.925498 0.378127 0.021755
vn 0.925499 0.378126 0.021743
vn 0.925499 0.378126 0.021743
vn 0.925499 0.378126 0.021743
vn 0.925499 0.378126 0.021743
vn 0.925498 0.378126 0.021751
vn 0.925498 0.378126 0.021751
vn 0.925499 0.378126 0.021751
vn 0.925498 0.378126 0.021751
vn 0.925499 0.378126 0.021751
vn 0.925499 0.378126 0.021751
vn 0.925499 0.378126 0.021751
vn 0.925499 0.378126 0.021751
vn 0.000000 0.000000 1.000000
vn 0.000000 0.000000 1.000000
vn 0.000000 0.000000 1.000000
vn 0.000000 0.000000 1.000000
vn 0.000000 1.000000 0.000000
vn 0.000000 1.000000 0.000000
vn 0.000000 1.000000 0.000000
vn 0.000000 1.000000 0.000000
vn 0.000000 0.000000 -1.000000
vn 0.000000 0.000000 -1.000000
vn 0.000000 0.000000 -1.000000
vn 0.000000 0.000000 -1.000000
vn 0.000000 -1.000000 0.000000
vn 0.000000 -1.000000 0.000000
vn 0.000000 -1.000000 0.000000
vn 0.000000 -1.000000 0.000000
vn 1.000000 0.000000 0.000000
vn 1.000000 0.000000 0.000000
vn 1.000000 0.000000 0.000000
vn 1.000000 0.000000 0.000000
vn -1.000000 0.000000 0.000000
vn -1.000000 0.000000 0.000000
vn -1.000000 0.000000 0.000000
vn -1.000000 0.000000 0.000000
vn 0.000000 1.000000 -0.000000
vn 0.000000 1.000000 -0.000000
vn 0.000000 1.000000 -0.000000
vn 0.000000 1.000000 -0.000000
vn 0.000000 1.000000 0.000000
vn 0.000000 1.000000 0.000000
vn 0.000000 1.000000 0.000000
vn 0.000000 1.000000 0.000000
vn 0.000000 1.000000 0.000000
vn 0.000000 1.000000 0.000000
vn 0.000000 1.000000 0.000000
vn 0.000000 1.000000 0.000000
vn 0.000000 1.000000 0.000000
vn 0.000000 1.000000 0.000000
vn 0.000000 1.000000 0.000000
vn 0.000000 1.000000 0.000000
vn 0.000000 0.988241 -0.152906
vn 0.000000 0.988241 -0.152906
vn 0.000000 0.988241 -0.152906
vn 0.000000 0.988241 -0.152906
vn -0.152906 0.988241 0.000000
vn -0.152906 0.988241 0.000000
vn -0.152906 0.988241 0.000000
vn -0.152906 0.988241 0.000000
vn 0.000000 0.988241 0.152906
vn 0.000000 0.988241 0.152906
vn 0.000000 0.988241 0.152906
vn 0.000000 0.988241 0.152906
vn 0.152906 0.988241 0.000000
vn 0.152906 0.988241 0.000000
vn 0.152906 0.988241 0.000000
vn 0.152906 0.988241 0.000000
vn 0.000000 -0.988859 -0.148853
vn 0.000000 -0.988859 -0.148853
vn 0.000000 -0.988859 -0.148853
vn 0.000000 -0.988859 -0.148853
vn 0.148853 -0.988859 0.000000
vn 0.148853 -0.988859 0.000000
vn 0.148853 -0.988859 0.000000
vn 0.148853 -0.988859 0.000000
vn 0.000000 -0.988859 0.148853
vn 0.000000 -0.988859 0.148853
vn 0.000000 -0.988859 0.148853
vn 0.000000 -0.988859 0.148853
vn -0.148853 -0.988859 0.000000
vn -0.148853 -0.988859 0.000000
vn -0.148853 -0.988859 0.000000
vn -0.148853 -0.988859 0.000000
s off
g pCube58
usemtl lambert13SG
f 1/1/1 2/2/2 4/39/3 3/3/4
f 3/12/5 4/13/6 5/15/7 13/16/8
f 2/2/9 6/38/10 5/42/11 4/39/12
f 9/8/13 10/9/14 11/11/15 12/10/16
f 3/12/17 13/16/18 14/17/19 8/28/20
f 12/10/21 11/11/22 16/40/23 20/41/24
f 8/28/25 14/17/26 15/29/27
f 1/1/28 3/3/29 10/9/30 9/8/31
f 3/12/32 8/28/33 11/30/34 10/31/35
f 7/5/36 1/6/37 9/7/38 12/18/39
f 8/28/40 15/29/41 16/32/42 11/30/43
f 17/19/44 6/33/45 2/34/46 1/6/47
f 18/35/48 17/19/49 1/6/50 7/5/51
f 19/36/52 18/35/53 7/5/54
f 20/37/55 19/36/56 7/5/57 12/18/58
f 16/4/59 15/14/60 19/21/61 20/22/62
f 15/14/63 14/23/64 18/24/65 19/21/66
f 14/23/67 13/25/68 17/26/69 18/24/70
f 13/25/71 5/27/72 6/20/73 17/26/74
f 21/43/75 22/44/76 24/45/77 23/46/78
f 23/47/79 24/48/80 43/49/81
f 27/50/82 28/51/83 29/52/84 30/53/85
f 23/47/86 43/49/87 44/54/88 25/55/89
f 33/56/90 34/57/91 35/58/92 36/59/93
f 25/55/94 44/54/95 45/60/96 28/61/97 27/62/98
f 36/59/99 35/58/100 37/63/101 38/64/102
f 29/52/103 28/51/104 32/65/105 31/66/106
f 28/61/107 45/60/108 46/67/109 32/68/110
f 21/43/111 23/46/112 34/57/113 33/56/114
f 23/47/115 25/55/116 35/69/117 34/70/118
f 26/71/119 21/72/120 33/73/121 36/74/122
f 25/55/123 27/62/124 37/75/125 35/69/126
f 27/50/127 30/53/128 38/64/129 37/63/130
f 30/76/131 26/71/132 36/74/133 38/77/134
f 39/78/135 22/79/136 21/72/137
f 40/80/138 39/78/139 21/72/140 26/71/141
f 41/81/142 40/80/143 26/71/144 30/76/145 29/82/146
f 42/83/147 41/81/148 29/82/149 31/84/150
f 46/85/151 42/86/152 31/66/153 32/65/154
f 41/87/155 42/88/156 46/89/157 45/90/158
f 40/91/159 41/87/160 45/90/161 44/92/162
f 39/93/163 40/91/164 44/92/165 43/94/166
f 22/95/167 39/93/168 43/94/169 24/96/170
usemtl initialShadingGroup
f 47/97/171 48/98/172 50/99/173 49/100/174
f 59/101/175 60/102/176 61/103/177 62/104/178
f 51/105/179 52/106/180 54/107/181 53/108/182
f 63/109/183 64/110/184 65/111/185 66/112/186
f 48/98/187 54/113/188 52/114/189 50/99/190
f 53/115/191 47/97/192 49/100/193 51/116/194
f 49/100/195 50/99/196 56/117/197 55/118/198
f 50/99/199 52/106/200 57/119/201 56/117/202
f 52/106/203 51/105/204 58/120/205 57/119/206
f 51/105/207 49/100/208 55/118/209 58/120/210
f 55/118/211 56/117/212 60/102/213 59/101/214
f 56/117/215 57/119/216 61/103/217 60/102/218
f 57/119/219 58/120/220 62/104/221 61/103/222
f 58/120/223 55/118/224 59/101/225 62/104/226
f 53/108/227 54/107/228 64/110/229 63/109/230
f 54/107/231 48/121/232 65/111/233 64/110/234
f 48/121/235 47/122/236 66/112/237 65/111/238
f 47/122/239 53/108/240 63/109/241 66/112/242
